<svg id="outline" xmlns="http://www.w3.org/2000/svg" viewBox="0 0 24 24">
  <rect fill="#2d3741" x="4" y="17.25" width="4" height="3" rx="0.5" />
  <rect fill="#2d3741" x="16" y="17.25" width="4" height="3" rx="0.5" />
  <rect fill="#2d3741" x="10" y="17.25" width="4" height="3" rx="0.5" />
  <rect fill="#2d3741" x="4" y="12.25" width="4" height="3" rx="0.5" />
  <rect fill="#2d3741" x="16" y="12.25" width="4" height="3" rx="0.5" />
  <rect fill="#2d3741" x="10" y="12.25" width="4" height="3" rx="0.5" />
  <path fill="#2d3741" d="M21,3.25V1.75a1,1,0,0,0-2,0v1.5H18V1.75a1,1,0,0,0-2,0v1.5H8V1.75a1,1,0,0,0-2,0v1.5H5V1.75a1,1,0,0,0-2,0v1.5a2,2,0,0,0-2,2v16a2,2,0,0,0,2,2H21a2,2,0,0,0,2-2v-16A2,2,0,0,0,21,3.25Zm1,18a1,1,0,0,1-1,1H3a1,1,0,0,1-1-1v-11H22Z" />
</svg>
